<svg width="2000" height="2000" viewBox="0 0 2000 2000" fill="none" xmlns="http://www.w3.org/2000/svg">
<path fill-rule="evenodd" clip-rule="evenodd" fill="#ffffff" d="M0 1000V2000H1000H2000V1000V0H1000H0V1000ZM1037.6 511.017C1098.66 515.831 1158.86 531.866 1211.32 557.287L1224.15 563.5L1207.48 586.5C1198.31 599.15 1190.51 609.819 1190.14 610.209C1189.78 610.598 1184.76 608.75 1178.99 606.102C1146.14 591.025 1107.3 579.213 1072 573.565C1042.93 568.914 1036.99 568.499 1000 568.525C960.393 568.552 948.164 569.688 914.5 576.464C752.841 609.005 624.025 731.917 582.877 892.888C578.554 909.802 573.875 935.878 571.823 954.5C569.771 973.113 570.079 1028.73 572.334 1047C584.898 1148.78 629.079 1238.69 700.595 1308.01C827.502 1431.03 1014.97 1464.22 1177 1392.36C1307.71 1334.39 1402.79 1211.5 1425.95 1070.61C1430.64 1042.08 1431.5 1030.96 1431.5 999C1431.5 953.612 1426.88 920.081 1414.88 878.527C1396.4 814.481 1359.91 750.112 1316.71 705.329C1313.83 702.344 1311.95 699.57 1312.26 698.765C1312.55 697.999 1320.22 687.174 1329.29 674.711L1345.79 652.051L1356.14 662.794C1421.23 730.312 1467.03 822.019 1482.85 916.5C1488.18 948.315 1489.45 964.211 1489.45 999C1489.46 1030.79 1488.66 1043.25 1484.98 1068.5C1473.01 1150.59 1441.19 1226.96 1391.41 1293C1323.26 1383.41 1227.16 1446.72 1117.25 1473.61C1002.49 1501.69 883.226 1487.79 778.5 1434.12C634.498 1360.32 537.374 1222.76 516.11 1062.5C512.773 1037.35 511.682 1015.68 512.308 987C512.908 959.491 514.302 943.991 518.469 918.5C541.336 778.623 625.795 654.073 748 580.019C764.97 569.736 800.294 552.111 818 545.093C867.094 525.634 912.582 515.296 969.5 510.662C979.401 509.856 1025.96 510.098 1037.6 511.017ZM876 937.509C899.375 1013.13 918.8 1075 919.167 1075C919.533 1075 924.346 1061.39 929.862 1044.75C937.723 1021.04 995.176 845.964 1007.64 807.75L1010.16 800H1062.08H1114V980V1160H1078.41H1042.82L1043.29 1045.75C1043.7 946.131 1044.4 910.106 1046.43 884.25C1046.79 879.712 1046.59 878 1045.7 878C1044.95 878 1029.58 923.276 1006.73 992.75C985.969 1055.86 965.07 1119.32 960.285 1133.76L951.586 1160.03L916.662 1159.76L881.738 1159.5L838.419 1018.5C814.593 940.95 795.077 877.298 795.05 877.05C795.022 876.802 794.572 877.028 794.048 877.552C793.446 878.154 793.856 892.089 795.165 915.502C796.919 946.887 797.305 968.243 797.71 1056.26L798.187 1160.03L763.843 1159.76L729.5 1159.5L729.247 979.75L728.995 800L781.247 800.011L833.5 800.023L876 937.509ZM1240 889.583C1240 894.304 1240.34 898.014 1240.75 897.828C1241.16 897.641 1243.97 896.177 1247 894.574C1251.39 892.248 1254.12 891.572 1260.5 891.23C1270.97 890.669 1275.47 892.457 1292.75 904.032C1305.96 912.88 1309.49 914.372 1315.86 913.801C1319.86 913.442 1321.6 915.46 1320.63 919.33C1320.21 921.014 1319.07 922.195 1317.48 922.593C1316.12 922.936 1315 923.867 1315 924.662C1315 927.667 1349.23 1061.52 1350.08 1061.83C1351.36 1062.3 1348.67 1067.04 1345.34 1070.19C1343.78 1071.67 1340.47 1073.8 1338 1074.92C1333.93 1076.76 1331.46 1076.96 1312.12 1076.98C1298.55 1076.99 1289.3 1076.57 1286.81 1075.82C1280.51 1073.94 1270.14 1063.85 1272.73 1062.12C1273.58 1061.56 1308 926.93 1308 924.182C1308 923.547 1306.39 922.353 1304.42 921.529C1302.44 920.706 1296.61 917.086 1291.44 913.487C1270.09 898.602 1259.71 896.827 1245.6 905.654L1240 909.154V916.077C1240 920.026 1240.43 923 1241 923C1241.66 923 1242 945.15 1242 987.45C1242 1043.4 1242.2 1052.01 1243.48 1052.73C1244.73 1053.43 1245.01 1058.14 1245.23 1082.42L1245.5 1111.28L1249.71 1112.52C1255.02 1114.09 1261.77 1118.03 1264.92 1121.41C1266.81 1123.43 1268.31 1124 1271.67 1124H1276V1130.5C1276 1135.61 1276.32 1137 1277.5 1137C1278.63 1137 1279 1138.22 1279 1142V1147H1237.5H1196V1142C1196 1137.67 1196.27 1137 1198 1137C1199.79 1137 1200 1136.33 1200 1130.5V1124H1204.64C1208.67 1124 1209.85 1123.47 1213.67 1119.95C1217.85 1116.1 1225.54 1112 1228.58 1112C1229.77 1112 1230 1107.29 1230 1082.5C1230 1056.94 1230.2 1053 1231.5 1053C1232.82 1053 1233 1045.11 1233 988C1233 945.333 1233.34 923 1234 923C1234.57 923 1235 920.071 1235 916.214V909.428L1229.52 905.818C1219.65 899.319 1210.05 898.541 1199.47 903.383C1196.62 904.689 1189.33 909.139 1183.27 913.271C1177.21 917.404 1171.3 921.088 1170.13 921.46C1168.96 921.831 1168 922.559 1168 923.079C1168 925.865 1202.26 1060.55 1203.04 1060.83C1204.61 1061.38 1201.27 1066.61 1197.03 1070.24C1190.95 1075.44 1187.74 1076 1163.75 1076H1142.23L1136.88 1073.21C1133.6 1071.49 1130.5 1068.89 1128.86 1066.46L1126.19 1062.5L1143.57 993.5C1153.13 955.55 1160.96 924.256 1160.97 923.957C1160.99 923.658 1159.54 922.983 1157.75 922.457C1154.78 921.584 1154.5 921.15 1154.5 917.5V913.5L1159 913.449C1161.47 913.421 1164.48 913.309 1165.68 913.199C1166.88 913.09 1173.31 909.375 1179.96 904.945C1194.88 895.008 1200.3 892.246 1207.49 890.917C1214.86 889.555 1222.04 891.05 1229.39 895.475L1235 898.854V890.594C1235 881.827 1235.27 881 1238.17 881C1239.8 881 1240 881.927 1240 889.583ZM1146.2 994.751C1137.24 1030.36 1129.93 1059.84 1129.95 1060.25C1129.98 1060.66 1137.43 1061 1146.5 1061H1163V995.5C1163 959.475 1162.89 930 1162.75 930.001C1162.61 930.001 1155.17 959.139 1146.2 994.751ZM1166.07 995.25L1166 1061H1182.5C1195.05 1061 1199 1060.7 1198.98 1059.75C1198.97 1059.06 1191.57 1029.47 1182.55 994L1166.14 929.5L1166.07 995.25ZM1293.21 995.25C1284.27 1031.14 1276.96 1060.84 1276.97 1061.25C1276.99 1061.66 1284.43 1062 1293.5 1062H1310V996C1310 959.7 1309.88 930 1309.74 930C1309.6 930 1302.16 959.362 1293.21 995.25ZM1313.09 996.25L1313 1062H1329.5C1338.57 1062 1345.99 1061.66 1345.97 1061.25C1345.95 1060.84 1338.57 1031.25 1329.56 995.5L1313.18 930.5L1313.09 996.25Z" fill="#ffffff"/>
</svg>
